<svg xmlns="http://www.w3.org/2000/svg" width="17" height="18" viewBox="0 0 17 18">
  <g id="프로젝트" transform="translate(0.5 0.5)">
    <path id="패스_19" data-name="패스 19" d="M12.537,4.927H.947A.452.452,0,0,0,.5,5.384V17.2a.452.452,0,0,0,.447.457h11.59a.452.452,0,0,0,.448-.457V5.384A.452.452,0,0,0,12.537,4.927Z" transform="translate(-0.5 -0.661)" fill="none" stroke="#f14e24" stroke-linecap="round" stroke-linejoin="round" stroke-width="1"/>
    <path id="패스_20" data-name="패스 20" d="M16.078,1.829h-4L11.118.844a1.145,1.145,0,0,0-1.637,0l-.966.985H4.5a.445.445,0,0,0-.448.442V14.122a.445.445,0,0,0,.448.441h11.59a.444.444,0,0,0,.447-.441V2.285a.461.461,0,0,0-.463-.457" transform="translate(-0.541 -0.5)" fill="#f8f8f8"/>
    <path id="패스_21" data-name="패스 21" d="M16.078,1.829h-4L11.118.844a1.145,1.145,0,0,0-1.637,0l-.966.985H4.5a.445.445,0,0,0-.448.442V14.122a.445.445,0,0,0,.448.441h11.59a.444.444,0,0,0,.447-.441V2.285A.461.461,0,0,0,16.078,1.829Z" transform="translate(-0.541 -0.5)" fill="none" stroke="#f14e24" stroke-linecap="round" stroke-linejoin="round" stroke-width="1"/>
  </g>
</svg>
