<svg xmlns="http://www.w3.org/2000/svg" width="69.129" height="73" viewBox="0 0 69.129 73">
  <g id="프로젝트" transform="translate(0.5 0.5)">
    <path id="패스_19" data-name="패스 19" d="M52,4.927H2.414A1.935,1.935,0,0,0,.5,6.881V57.459a1.935,1.935,0,0,0,1.914,1.954H52a1.936,1.936,0,0,0,1.919-1.954V6.881A1.936,1.936,0,0,0,52,4.927Z" transform="translate(-0.5 12.588)" fill="none" stroke="#ccc" stroke-linecap="round" stroke-linejoin="round" stroke-width="1"/>
    <path id="패스_20" data-name="패스 20" d="M55.5,6.186H38.4L34.27,1.972a4.9,4.9,0,0,0-7,0L23.136,6.186H5.975A1.906,1.906,0,0,0,4.056,8.078V58.784a1.9,1.9,0,0,0,1.919,1.888H55.563a1.9,1.9,0,0,0,1.914-1.888V8.14A1.972,1.972,0,0,0,55.5,6.186" transform="translate(10.652 -0.5)" fill="#fff"/>
    <path id="패스_21" data-name="패스 21" d="M55.5,6.186H38.4L34.27,1.972a4.9,4.9,0,0,0-7,0L23.136,6.186H5.975A1.906,1.906,0,0,0,4.056,8.078V58.784a1.9,1.9,0,0,0,1.919,1.888H55.563a1.9,1.9,0,0,0,1.914-1.888V8.14A1.972,1.972,0,0,0,55.5,6.186Z" transform="translate(10.652 -0.5)" fill="none" stroke="#ccc" stroke-linecap="round" stroke-linejoin="round" stroke-width="1"/>
  </g>
</svg>
