<svg xmlns="http://www.w3.org/2000/svg" xmlns:xlink="http://www.w3.org/1999/xlink" width="12" height="12" viewBox="0 0 12 12">
  <defs>
    <clipPath id="clip-path">
      <rect id="사각형_81" data-name="사각형 81" width="12" height="12" transform="translate(0 0)" fill="none"/>
    </clipPath>
  </defs>
  <g id="파일첨부" transform="translate(-1760.201 -993.752)">
    <g id="그룹_95" data-name="그룹 95" transform="translate(1760.201 993.752)" clip-path="url(#clip-path)">
      <path id="패스_83" data-name="패스 83" d="M7.422,8.215a2.216,2.216,0,0,1-1.571-.65l-.592-.592.7-.7.591.592a1.232,1.232,0,0,0,1.737,0l2.59-2.591a1.229,1.229,0,0,0,0-1.737L9.7,1.352a1.229,1.229,0,0,0-1.737,0l-2,2-.7-.7,2-2A2.224,2.224,0,0,1,10.4.65l1.183,1.182a2.227,2.227,0,0,1,0,3.143L8.993,7.565a2.216,2.216,0,0,1-1.571.65" transform="translate(-0.233 0)" fill="#333"/>
      <path id="패스_84" data-name="패스 84" d="M3.4,12.175a2.216,2.216,0,0,1-1.571-.65L.65,10.343A2.225,2.225,0,0,1,.65,7.2L3.241,4.61a2.224,2.224,0,0,1,3.142,0L7.566,5.793l-.7.7L5.68,5.313a1.23,1.23,0,0,0-1.737,0L1.353,7.9a1.227,1.227,0,0,0,0,1.737l1.181,1.183a1.23,1.23,0,0,0,1.737,0L6.183,8.912l.7.7L4.975,11.525a2.218,2.218,0,0,1-1.571.65" transform="translate(0 -0.175)" fill="#333"/>
    </g>
  </g>
</svg>
